General
Complete name                    : Coming to America.mkv
Format                           : Matroska
File size                        : 1.89 GiB
Duration                         : 1h 52mn
Overall bit rate                 : 2 416 Kbps
Writing application              : HandBrake 0.9.4

Video
ID                               : 1
Format                           : AVC
Duration                         : 1h 52mn
Bit rate                         : 1 920 Kbps
Width                            : 708 pixels
Height                           : 576 pixels
Display aspect ratio             : 16:9
Original display aspect ratio    : 16:9
Frame rate                       : 25.000 fps
Resolution                       : 8 bits
Colorimetry                      : 4:2:0
Scan type                        : Progressive
Bits/(Pixel*Frame)               : 0.188
Stream size                      : 1.51 GiB (79%)
Writing library                  : x264 core 79


Audio
ID                               : 2
Format                           : AC-3
Format/Info                      : Audio Coding 3
Codec ID                         : A_AC3
Duration                         : 1h 52mn
Bit rate mode                    : Constant
Bit rate                         : 448 Kbps
Channel(s)                       : 6 channels
Channel positions                : Front: L C R, Side: L R, LFE
Sampling rate                    : 48.0 KHz
Stream size                      : 360 MiB (19%)
Language                         : English

Text #1
Language                         : Arabic

Text #2
Language                         : Bulgarian

Text #3
Language                         : Czech

Text #4
Language                         : Danish

Text #5
Language                         : German

Text #6
Language                         : English

Text #7
Language                         : Icelandic

Text #8
Language                         : Hungarian

Text #9
Language                         : Dutch

Text #10
Language                         : Norwegian

Text #11
Language                         : Polish

Text #12
Language                         : Romanian

Text #13
Language                         : Finnish

Text #14
Language                         : Swedish

Text #15
Language                         : Turkish

Text #16
Language                         : English

Menu
00:00:00.000                     : Chapter 1


